<?xml version="1.0" encoding="UTF-8" standalone="no"?>
<svg width="80px" height="80px" viewBox="0 0 80 80" version="1.1" xmlns="http://www.w3.org/2000/svg" xmlns:xlink="http://www.w3.org/1999/xlink">
    <!-- Generator: Sketch 3.6.1 (26313) - http://www.bohemiancoding.com/sketch -->
    <title>Group</title>
    <desc>Created with Sketch.</desc>
    <defs></defs>
    <g id="Page-1" stroke="none" stroke-width="1" fill="none" fill-rule="evenodd">
        <g id="Group-4" transform="translate(-24.000000, -37.000000)" fill="#000000">
            <g id="Group-3" transform="translate(24.000000, 37.000000)">
                <g id="Group">
                    <rect id="Rectangle-path" x="75" y="30" width="5" height="5"></rect>
                    <rect id="Rectangle-path" x="75" y="20" width="5" height="5"></rect>
                    <rect id="Rectangle-path" x="75" y="25" width="5" height="5"></rect>
                    <rect id="Rectangle-path" x="75" y="35" width="5" height="5"></rect>
                    <rect id="Rectangle-path" x="70" y="45" width="5" height="5"></rect>
                    <rect id="Rectangle-path" x="70" y="50" width="5" height="5"></rect>
                    <rect id="Rectangle-path" x="75" y="40" width="5" height="5"></rect>
                    <rect id="Rectangle-path" x="70" y="15" width="5" height="5"></rect>
                    <rect id="Rectangle-path" x="65" y="60" width="5" height="5"></rect>
                    <rect id="Rectangle-path" x="65" y="55" width="5" height="5"></rect>
                    <rect id="Rectangle-path" x="65" y="15" width="5" height="5"></rect>
                    <rect id="Rectangle-path" x="60" y="75" width="5" height="5"></rect>
                    <rect id="Rectangle-path" x="60" y="70" width="5" height="5"></rect>
                    <rect id="Rectangle-path" x="60" y="65" width="5" height="5"></rect>
                    <rect id="Rectangle-path" x="60" y="30" width="5" height="5"></rect>
                    <rect id="Rectangle-path" x="60" y="20" width="5" height="5"></rect>
                    <rect id="Rectangle-path" x="60" y="25" width="5" height="5"></rect>
                    <rect id="Rectangle-path" x="60" y="15" width="5" height="5"></rect>
                    <rect id="Rectangle-path" x="60" y="10" width="5" height="5"></rect>
                    <rect id="Rectangle-path" x="55" y="5" width="5" height="5"></rect>
                    <rect id="Rectangle-path" x="50" y="5" width="5" height="5"></rect>
                    <rect id="Rectangle-path" x="45" y="20" width="5" height="5"></rect>
                    <rect id="Rectangle-path" x="45" y="25" width="5" height="5"></rect>
                    <rect id="Rectangle-path" x="45" y="15" width="5" height="5"></rect>
                    <rect id="Rectangle-path" x="45" y="5" width="5" height="5"></rect>
                    <rect id="Rectangle-path" x="45" y="10" width="5" height="5"></rect>
                    <rect id="Rectangle-path" x="40" y="0" width="5" height="5"></rect>
                    <rect id="Rectangle-path" x="35" y="0" width="5" height="5"></rect>
                    <rect id="Rectangle-path" x="30" y="20" width="5" height="5"></rect>
                    <rect id="Rectangle-path" x="30" y="25" width="5" height="5"></rect>
                    <rect id="Rectangle-path" x="30" y="15" width="5" height="5"></rect>
                    <rect id="Rectangle-path" x="30" y="5" width="5" height="5"></rect>
                    <rect id="Rectangle-path" x="30" y="10" width="5" height="5"></rect>
                    <rect id="Rectangle-path" x="25" y="75" width="5" height="5"></rect>
                    <rect id="Rectangle-path" x="25" y="70" width="5" height="5"></rect>
                    <rect id="Rectangle-path" x="25" y="15" width="5" height="5"></rect>
                    <rect id="Rectangle-path" x="25" y="10" width="5" height="5"></rect>
                    <rect id="Rectangle-path" x="20" y="65" width="5" height="5"></rect>
                    <rect id="Rectangle-path" x="20" y="30" width="5" height="5"></rect>
                    <rect id="Rectangle-path" x="20" y="40" width="5" height="5"></rect>
                    <rect id="Rectangle-path" x="20" y="35" width="5" height="5"></rect>
                    <rect id="Rectangle-path" x="20" y="5" width="5" height="5"></rect>
                    <rect id="Rectangle-path" x="15" y="60" width="5" height="5"></rect>
                    <rect id="Rectangle-path" x="15" y="20" width="5" height="5"></rect>
                    <rect id="Rectangle-path" x="15" y="25" width="5" height="5"></rect>
                    <rect id="Rectangle-path" x="15" y="35" width="5" height="5"></rect>
                    <rect id="Rectangle-path" x="15" y="5" width="5" height="5"></rect>
                    <rect id="Rectangle-path" x="10" y="55" width="5" height="5"></rect>
                    <rect id="Rectangle-path" x="10" y="50" width="5" height="5"></rect>
                    <rect id="Rectangle-path" x="10" y="30" width="5" height="5"></rect>
                    <rect id="Rectangle-path" x="10" y="15" width="5" height="5"></rect>
                    <rect id="Rectangle-path" x="10" y="10" width="5" height="5"></rect>
                    <rect id="Rectangle-path" x="5" y="45" width="5" height="5"></rect>
                    <rect id="Rectangle-path" x="5" y="30" width="5" height="5"></rect>
                    <rect id="Rectangle-path" x="0" y="40" width="5" height="5"></rect>
                    <rect id="Rectangle-path" x="0" y="35" width="5" height="5"></rect>
                </g>
            </g>
        </g>
    </g>
</svg>