<?xml version="1.0" encoding="UTF-8" standalone="no"?>
<svg width="51px" height="80px" viewBox="0 0 51 80" version="1.1" xmlns="http://www.w3.org/2000/svg" xmlns:xlink="http://www.w3.org/1999/xlink">
    <!-- Generator: Sketch 3.6.1 (26313) - http://www.bohemiancoding.com/sketch -->
    <title>pointing</title>
    <desc>Created with Sketch.</desc>
    <defs></defs>
    <g id="Page-1" stroke="none" stroke-width="1" fill="none" fill-rule="evenodd">
        <g id="Group-5" transform="translate(-192.000000, -57.000000)" fill="#000000">
            <path d="M196.250386,65.4185787 L200.500771,65.4185787 L200.500771,61.2098626 L196.250386,61.2098626 L196.250386,57 L192,57 L192,128.581421 L200.500771,128.581421 L200.500771,124.368119 L196.250386,124.368119 C196.250386,124.368119 196.250386,65.4185787 196.250386,65.4185787 L196.250386,65.4185787 Z M204.748843,69.6318807 L204.748843,65.4197251 L200.500771,65.4197251 L200.500771,69.6318807 L204.748843,69.6318807 L204.748843,69.6318807 Z M209.001543,73.8440362 L209.001543,69.6318807 L204.748843,69.6318807 L204.748843,73.8440362 L209.001543,73.8440362 L209.001543,73.8440362 Z M213.250771,78.0527523 L213.250771,73.8440362 L209.001543,73.8440362 L209.001543,78.0527523 L213.250771,78.0527523 L213.250771,78.0527523 Z M217.5,82.2626148 L217.5,78.0527523 L213.250771,78.0527523 L213.250771,82.2626148 L217.5,82.2626148 L217.5,82.2626148 Z M221.750386,86.4747703 L221.750386,82.2626148 L217.5,82.2626148 L217.5,86.4747703 L221.750386,86.4747703 L221.750386,86.4747703 Z M225.998457,90.6846329 L225.998457,86.4747703 L221.750386,86.4747703 L221.750386,90.6846329 L225.998457,90.6846329 L225.998457,90.6846329 Z M230.251157,94.893349 L230.251157,90.6846329 L225.998457,90.6846329 L225.998457,94.893349 L230.251157,94.893349 L230.251157,94.893349 Z M234.499229,99.106651 L234.499229,94.893349 L230.251157,94.893349 L230.251157,99.106651 L234.499229,99.106651 L234.499229,99.106651 Z M238.7473,103.318807 L238.7473,99.106651 L234.499229,99.106651 L234.499229,103.318807 L238.7473,103.318807 L238.7473,103.318807 Z M243,111.737385 L243,103.318807 L238.7473,103.318807 L238.7473,107.526376 L221.750386,107.526376 L221.750386,115.949541 L225.998457,115.949541 L225.998457,111.737385 C225.998457,111.737385 243,111.737385 243,111.737385 L243,111.737385 Z M209.001543,111.737385 L209.001543,115.949541 L213.250771,115.949541 L213.250771,111.737385 L209.001543,111.737385 L209.001543,111.737385 Z M204.748843,120.159403 L209.001543,120.159403 L209.001543,115.949541 L204.748843,115.949541 L204.748843,120.159403 L204.748843,120.159403 Z M213.250771,115.949541 L213.250771,124.368119 L217.5,124.368119 L217.5,115.949541 L213.250771,115.949541 L213.250771,115.949541 Z M230.251157,124.368119 L230.251157,115.949541 L225.998457,115.949541 L225.998457,124.368119 L230.251157,124.368119 L230.251157,124.368119 Z M200.500771,124.368119 L204.748843,124.368119 L204.748843,120.159403 L200.500771,120.159403 L200.500771,124.368119 L200.500771,124.368119 Z M217.5,124.368119 L217.5,132.790137 L221.750386,132.790137 L221.750386,124.368119 L217.5,124.368119 L217.5,124.368119 Z M234.499229,132.790137 L234.499229,124.368119 L230.251157,124.368119 L230.251157,132.790137 L234.499229,132.790137 L234.499229,132.790137 Z M221.750386,137 L230.251157,137 L230.251157,132.790137 L221.750386,132.790137 L221.750386,137 L221.750386,137 Z" id="pointing"></path>
        </g>
    </g>
</svg>